# xmcd
#
# Track frame offsets:
#	150
#	3197
#	9325
#	22320
#	35800
#	37270
#	48532
#	58920
#	70542
#	81295
#	82800
#	93395
#	105977
#	108667
#	118929
#	127707
#	137227
#	146767
#	170835
#	193140
#	194655
#	202777
#	212460
#	212905
#	225395
#	234490
#	264842
#	276952
#
# Disc length: 4216 seconds
#
# Revision: 1
# Processed by: cddbd v1.5.2PL0 Copyright (c) Steve Scherf et al.
# Submitted via: audiograbber 1.83.01
#
DISCID=9510761c
DTITLE=Thomas Ashley-Farrand - Healing Mantras
DYEAR=1999
DGENRE=Meditative
TTITLE0=Invocation
TTITLE1=Mantras for General Help
TTITLE2=Om Gum Ganapataye Namaha
TTITLE3=Om Shri Shanaishwaraya Swaha
TTITLE4=Mantras for Attracting Relationships
TTITLE5=Om Shrim Shriey Namaha
TTITLE6=Om Nama Shivaya
TTITLE7=Narayani Patim Dehi Shrim Klim Parameshwari
TTITLE8=Sat Patim Dehi Parameswara
TTITLE9=Mantras for Attracting Abundance and Good Luck
TTITLE10=Om Shrim Maha Lakshimiye Swaha
TTITLE11=Om Sharavana Bhavaya Namaha
TTITLE12=Healing Mantras
TTITLE13=Om Shri Dhanvantre Namaha
TTITLE14=Om Arkaya Namaha
TTITLE15=Om Hiranyagharbhaya Namaha
TTITLE16=Om Ram Ramaya Swaha
TTITLE17=Om Apadamapa Hataram Dataram Sarva Sampadam Loka Bhi Ramam Shri Ramam 
TTITLE17=Bhuyo Bhuyo Namamyaham
TTITLE18=Om Trayambakam Yajaamahe Sugandhim Pushtivardhanam Urvaarukamiva Bandh
TTITLE18=anaan-mrityormuksheeya Maamritaat
TTITLE19=Mantras for Invoking Feminine Power
TTITLE20=Om Dum Durgaye Namaha
TTITLE21=Om Eim Saraswatye Swaha
TTITLE22=Mantras for Spiritual Growth
TTITLE23=Om Namo Bhagavate Vasudevaya
TTITLE24=Om Mani Padme Hum
TTITLE25=Om Bhu Om Bhuvaba Om Swaba Om Maha Om Janaha Om Tapaha Om Satyam Om Ta
TTITLE25=t Savitur Varenyam Bhar
TTITLE26=Aham Prema
TTITLE27=Tamboura and bells
EXTD=YEAR: 1999
EXTT0=
EXTT1=
EXTT2=
EXTT3=
EXTT4=
EXTT5=
EXTT6=
EXTT7=
EXTT8=
EXTT9=
EXTT10=
EXTT11=
EXTT12=
EXTT13=
EXTT14=
EXTT15=
EXTT16=
EXTT17=
EXTT18=
EXTT19=
EXTT20=
EXTT21=
EXTT22=
EXTT23=
EXTT24=
EXTT25=
EXTT26=
EXTT27=
PLAYORDER=
